<?xml version="1.0" standalone="no"?>
<!DOCTYPE svg PUBLIC "-//W3C//DTD SVG 20010904//EN"
 "http://www.w3.org/TR/2001/REC-SVG-20010904/DTD/svg10.dtd">
<svg version="1.0" xmlns="http://www.w3.org/2000/svg"
 width="1024.000000pt" height="1024.000000pt" viewBox="0 0 1024.000000 1024.000000"
 preserveAspectRatio="xMidYMid meet">
<metadata>
Created by potrace 1.14, written by Peter Selinger 2001-2017
</metadata>
<g transform="translate(0.000000,1024.000000) scale(0.100000,-0.100000)"
fill="#000000" stroke="none">
<path d="M5136 9473 c-2 -2 -19 -6 -39 -8 -57 -7 -171 -50 -232 -88 -36 -22
-109 -81 -153 -124 -54 -53 -126 -97 -194 -120 -74 -25 -229 -24 -318 2 -8 2
-35 7 -60 10 -25 3 -52 7 -60 10 -8 2 -31 6 -50 9 -19 3 -46 8 -60 11 -49 10
-305 57 -340 62 -50 8 -217 8 -270 0 -125 -19 -290 -86 -393 -161 -181 -131
-297 -296 -356 -506 -21 -75 -24 -94 -36 -205 -3 -33 -8 -67 -10 -75 -2 -8 -6
-34 -9 -57 -4 -24 -9 -62 -12 -85 -3 -24 -7 -52 -9 -63 -32 -256 -51 -321
-128 -443 -77 -120 -162 -185 -392 -296 -386 -189 -442 -218 -505 -265 -125
-94 -213 -202 -279 -341 -68 -142 -85 -223 -85 -395 0 -182 17 -257 94 -415
25 -53 132 -254 140 -265 15 -19 170 -325 166 -325 -3 0 1 -18 9 -40 13 -37
30 -166 26 -200 -1 -8 -1 -24 -1 -35 -1 -29 -39 -187 -49 -199 -5 -6 -12 -22
-16 -36 -4 -14 -16 -37 -27 -52 -11 -16 -16 -28 -11 -28 4 0 4 -4 -2 -8 -12
-8 -10 -5 -105 -187 -41 -77 -76 -142 -79 -145 -22 -19 -140 -300 -126 -300 2
0 -3 -22 -10 -50 -12 -47 -14 -233 -3 -320 14 -106 78 -263 151 -369 52 -75
157 -180 234 -231 41 -27 124 -74 186 -104 382 -184 458 -223 512 -261 170
-122 259 -286 291 -541 3 -27 7 -58 9 -69 1 -11 6 -47 10 -80 4 -33 9 -68 11
-79 2 -10 6 -44 9 -75 4 -31 8 -63 10 -71 2 -8 7 -37 10 -65 10 -91 53 -224
102 -315 77 -143 188 -262 326 -348 38 -23 71 -42 74 -42 3 0 29 -11 57 -24
120 -57 333 -86 468 -65 29 5 69 11 88 14 19 3 42 7 50 10 8 2 33 7 55 10 67
11 213 38 275 50 13 2 40 7 60 10 20 3 47 8 60 11 159 33 270 27 375 -22 53
-25 82 -47 162 -121 37 -34 82 -70 100 -80 18 -10 33 -21 33 -25 0 -5 9 -8 20
-8 11 0 20 -4 20 -9 0 -11 96 -44 185 -64 120 -28 299 -6 423 49 156 71 292
202 353 339 11 25 20 48 20 52 0 5 4 13 8 18 8 9 17 40 27 90 12 59 16 137 18
410 1 214 5 306 14 322 7 12 11 26 11 30 -3 10 5 30 40 108 36 78 84 136 269
323 84 84 152 158 153 165 0 6 2 23 4 37 9 80 -84 147 -160 116 -50 -21 -385
-363 -425 -433 -8 -16 -18 -30 -21 -33 -10 -8 -75 -151 -84 -185 -5 -16 -9
-34 -11 -40 -25 -81 -30 -158 -31 -413 -1 -342 -6 -381 -58 -481 -58 -113
-209 -222 -330 -238 -180 -25 -305 17 -433 144 -29 29 -55 53 -57 53 -3 0 -24
15 -47 33 -58 43 -157 87 -248 108 -79 18 -260 23 -260 7 0 -5 -5 -6 -10 -3
-6 4 -34 2 -63 -4 -78 -16 -109 -22 -142 -27 -28 -5 -91 -16 -160 -29 -16 -3
-43 -8 -60 -11 -16 -3 -68 -12 -115 -21 -126 -23 -138 -24 -220 -25 -180 -3
-333 58 -471 184 -102 94 -185 253 -204 391 -4 27 -8 57 -10 66 -2 10 -6 44
-9 77 -4 32 -9 68 -11 79 -2 11 -7 43 -10 70 -4 28 -9 66 -11 85 -3 19 -7 49
-9 65 -19 145 -28 187 -57 270 -24 70 -98 215 -110 215 -4 0 -8 5 -8 11 0 11
-58 89 -75 101 -5 4 -32 28 -60 54 -66 63 -141 111 -283 180 -282 138 -427
208 -432 209 -13 2 -70 40 -70 47 0 4 -5 8 -11 8 -7 0 -36 24 -66 53 -88 85
-165 214 -192 322 -8 33 -21 122 -23 160 0 17 11 129 16 153 15 69 50 150 136
307 15 28 56 104 90 170 35 66 71 131 81 145 9 14 17 28 18 33 0 4 7 20 14 35
16 31 57 147 63 177 2 11 7 31 10 45 11 43 13 273 3 320 -5 25 -12 58 -15 74
-8 41 -64 185 -75 192 -5 3 -9 14 -9 25 0 10 -4 19 -10 19 -5 0 -10 4 -10 8 0
5 -22 50 -49 100 -27 50 -75 139 -107 199 -31 59 -67 127 -80 150 -21 38 -53
132 -60 173 -14 84 -17 106 -15 114 1 5 4 41 6 81 2 39 9 83 14 98 6 15 8 27
6 27 -2 0 7 28 22 63 40 95 107 190 181 258 69 62 58 57 592 317 52 25 103 53
113 61 9 8 17 10 17 5 0 -5 4 -4 8 1 4 6 34 32 68 57 113 86 207 205 265 335
17 38 34 75 39 84 13 25 51 221 46 236 -3 7 -2 13 2 13 4 0 8 8 8 18 1 23 13
121 19 152 2 14 7 45 9 70 3 25 7 56 10 70 2 14 7 48 11 75 18 142 27 178 69
270 48 102 93 159 211 259 17 14 35 26 42 26 6 0 13 3 15 8 4 9 62 38 118 58
88 31 127 37 235 36 50 0 101 -3 115 -6 14 -3 51 -10 82 -16 32 -6 70 -13 85
-15 16 -3 78 -14 138 -25 61 -11 121 -22 135 -25 24 -5 39 -8 120 -22 19 -3
44 -8 55 -11 29 -7 238 -11 250 -4 5 3 23 7 39 9 102 11 261 101 375 211 99
97 215 142 348 136 123 -5 245 -60 326 -147 55 -59 113 -171 122 -237 4 -25 8
-47 10 -49 3 -2 0 -12 -6 -22 -5 -11 -6 -19 -2 -19 4 0 7 -142 7 -316 -2 -300
-8 -435 -20 -455 -3 -5 -7 -21 -10 -35 -7 -38 -58 -146 -92 -196 -16 -24 -93
-107 -169 -184 -163 -164 -173 -177 -173 -222 0 -80 77 -138 156 -118 25 7
304 279 344 337 14 19 32 42 40 51 17 19 91 164 108 213 50 142 55 200 53 635
-2 372 -3 405 -13 416 -4 3 -4 12 -2 18 9 24 -79 246 -98 246 -4 0 -8 4 -8 10
0 23 -116 143 -183 189 -26 18 -73 44 -105 59 -56 26 -63 28 -92 34 -8 2 -19
6 -25 10 -25 15 -267 33 -279 21z"/>
<path d="M4913 8421 c-29 -10 -53 -17 -53 -15 0 6 -233 -77 -343 -122 -109
-44 -301 -137 -324 -156 -7 -6 -13 -7 -13 -4 0 4 -7 0 -16 -8 -8 -9 -22 -16
-30 -16 -8 0 -14 -4 -14 -9 0 -5 -9 -13 -21 -16 -11 -4 -40 -19 -62 -34 -23
-15 -69 -45 -102 -67 -33 -21 -61 -42 -63 -46 -2 -5 -8 -8 -14 -8 -6 0 -25
-12 -44 -27 -18 -16 -51 -41 -73 -58 -169 -125 -429 -378 -566 -550 -22 -27
-43 -52 -46 -55 -11 -10 -115 -156 -164 -230 -54 -82 -62 -95 -86 -137 -9 -15
-26 -46 -39 -68 -24 -43 -124 -237 -126 -245 0 -3 -9 -23 -19 -45 -10 -22 -19
-42 -20 -45 -1 -3 -7 -18 -14 -35 -30 -70 -93 -246 -107 -300 -2 -5 -16 -59
-33 -119 -35 -125 -32 -115 -65 -301 -31 -179 -35 -208 -43 -335 -12 -184 -6
-524 11 -630 2 -14 7 -47 10 -75 10 -79 18 -130 30 -181 2 -12 7 -37 10 -55
24 -146 113 -440 177 -586 11 -24 19 -45 19 -48 0 -19 155 -333 175 -355 8 -8
14 -19 15 -25 2 -11 49 -93 63 -110 4 -5 31 -46 60 -90 162 -250 450 -565 687
-753 155 -123 153 -122 183 -140 15 -9 27 -20 27 -24 0 -4 5 -8 10 -8 6 0 43
-22 83 -48 208 -139 507 -283 767 -369 241 -81 282 -85 336 -39 31 27 36 38
39 78 1 39 -3 53 -26 81 -16 19 -44 38 -66 45 -227 67 -371 118 -493 174 -41
19 -94 43 -117 53 -24 10 -43 22 -43 27 0 4 -5 8 -12 8 -22 0 -347 194 -368
219 -3 3 -23 18 -45 33 -22 15 -52 38 -67 50 -15 13 -36 30 -46 38 -58 45
-111 91 -161 138 -30 28 -60 52 -65 52 -5 0 -7 2 -4 5 2 3 -30 40 -71 83 -42
43 -93 97 -114 121 -59 66 -227 288 -227 299 0 5 -7 15 -15 22 -8 7 -21 24
-28 39 -8 14 -39 67 -68 116 -81 134 -143 264 -234 490 -5 11 -9 22 -10 25 0
3 -9 30 -20 60 -11 30 -20 57 -20 60 -2 9 -45 155 -55 185 -5 17 -11 46 -14
65 -3 19 -9 50 -15 68 -5 18 -10 35 -10 37 1 6 -12 82 -18 110 -2 11 -6 43 -9
70 -3 28 -7 61 -10 75 -22 118 -22 558 0 730 9 66 17 117 21 143 3 15 7 37 9
50 2 12 7 40 11 62 11 59 72 295 85 330 7 17 13 37 15 45 2 8 12 40 23 70 86
242 194 457 355 704 31 49 166 228 216 286 131 155 346 355 551 513 163 126
536 331 705 388 22 7 45 16 50 20 13 8 186 64 245 79 123 31 174 77 165 148
-12 94 -91 131 -202 93z"/>
<path d="M6592 8424 c-60 -31 -82 -114 -45 -171 17 -26 61 -52 98 -59 28 -5
191 -56 266 -83 253 -91 565 -257 765 -406 22 -16 53 -39 68 -50 16 -11 33
-24 40 -30 29 -25 142 -121 153 -130 99 -80 318 -320 429 -469 41 -55 79 -106
84 -113 6 -7 10 -15 10 -18 0 -4 11 -21 24 -38 31 -41 117 -190 168 -292 22
-44 48 -96 58 -115 10 -19 37 -84 60 -145 23 -60 46 -119 51 -130 9 -23 39
-112 45 -135 2 -8 13 -51 25 -95 11 -44 22 -87 24 -95 16 -72 34 -161 39 -190
3 -19 7 -44 10 -55 2 -11 7 -51 11 -90 5 -38 10 -81 11 -95 3 -23 16 -333 15
-355 -3 -76 -11 -201 -15 -242 -3 -29 -9 -79 -12 -110 -4 -32 -10 -68 -15 -79
-4 -12 -6 -24 -3 -27 5 -5 -40 -226 -62 -303 -8 -28 -16 -60 -19 -70 -16 -76
-168 -471 -185 -484 -4 -3 -10 -15 -14 -26 -12 -39 -113 -220 -184 -328 -43
-68 -204 -289 -226 -312 -6 -6 -33 -37 -61 -68 -100 -115 -281 -289 -370 -357
-16 -13 -32 -26 -35 -29 -18 -21 -250 -185 -305 -216 -11 -6 -47 -28 -80 -48
-171 -105 -488 -241 -700 -301 -111 -31 -145 -46 -165 -75 -46 -65 -15 -159
62 -182 30 -9 49 -8 98 6 34 10 69 19 78 21 9 2 44 13 77 25 33 11 68 22 78
25 108 25 528 225 665 316 24 16 45 29 48 29 2 0 22 12 43 27 21 16 49 35 61
43 36 24 145 104 150 110 3 3 25 21 50 40 70 55 78 61 151 129 201 186 322
321 497 556 78 105 191 294 268 450 32 66 64 123 69 127 6 4 6 8 1 8 -5 0 -3
7 4 15 7 8 10 15 7 15 -4 0 5 22 18 49 14 27 25 55 25 63 0 8 4 18 9 23 8 9
84 238 110 330 27 98 55 229 76 350 4 22 9 50 11 63 3 13 7 44 9 70 2 26 7 81
12 122 10 97 10 501 0 605 -9 96 -14 138 -23 188 -3 20 -7 47 -9 60 -3 26 -23
132 -31 167 -3 14 -10 43 -15 65 -5 22 -11 49 -14 60 -3 11 -7 29 -9 40 -9 42
-66 216 -77 237 -7 13 -12 24 -11 26 5 5 -12 58 -24 77 -7 11 -13 22 -13 25 1
20 -143 342 -161 360 -3 3 -14 21 -24 40 -16 29 -64 110 -139 235 -7 11 -15
22 -18 25 -3 3 -20 28 -39 55 -144 215 -396 490 -610 665 -30 25 -57 47 -60
50 -24 25 -339 244 -380 263 -8 4 -37 20 -65 37 -195 114 -471 231 -723 306
-116 35 -150 38 -190 18z"/>
<path d="M4659 6566 c-2 -2 -33 -6 -69 -9 -406 -33 -714 -423 -657 -834 22
-162 165 -221 347 -143 41 17 84 34 95 37 11 3 25 9 30 14 16 12 120 46 167
55 69 12 116 10 208 -10 20 -4 132 -47 235 -91 17 -7 43 -18 59 -24 45 -19
122 -24 161 -11 97 32 148 126 146 267 -4 383 -282 699 -650 739 -31 3 -59 7
-62 10 -3 2 -8 2 -10 0z m54 -251 c147 -12 300 -123 373 -271 41 -82 71 -236
48 -242 -7 -2 -43 10 -81 27 -211 92 -358 120 -511 97 -67 -9 -214 -61 -322
-112 -50 -24 -59 -19 -54 29 2 18 5 47 7 65 2 17 7 35 10 39 4 3 7 13 7 20 0
33 66 147 114 196 52 54 126 114 126 101 0 -3 6 -1 13 5 23 18 98 41 156 47
31 3 57 7 60 9 2 3 8 2 13 -1 5 -4 24 -7 41 -9z"/>
<path d="M6997 6564 c-3 -3 -23 -6 -44 -6 -21 0 -65 -6 -98 -14 -33 -8 -68
-17 -77 -19 -9 -2 -50 -20 -90 -40 -221 -111 -374 -327 -404 -572 -29 -231 44
-369 195 -370 50 -1 231 58 263 85 8 6 23 13 34 15 10 1 24 5 29 9 27 17 147
41 207 40 73 0 150 -21 293 -82 169 -72 235 -82 311 -48 94 42 133 167 111
351 -34 274 -226 516 -480 605 -31 11 -57 18 -57 16 0 -3 -8 0 -18 5 -10 5
-49 12 -87 16 -39 4 -73 9 -76 11 -3 2 -9 1 -12 -2z m74 -248 c70 -8 152 -42
216 -90 60 -45 103 -89 103 -106 0 -6 4 -10 8 -10 9 0 61 -100 67 -129 2 -12
6 -25 9 -30 5 -7 16 -84 18 -121 3 -44 11 -45 -147 25 -37 16 -139 51 -180 60
-112 26 -164 26 -321 0 -36 -6 -148 -46 -214 -77 -25 -11 -51 -21 -57 -21 -7
0 -13 -4 -13 -9 0 -17 -40 -8 -41 10 -5 68 34 215 67 253 8 8 14 21 14 27 0 6
26 37 59 70 90 91 191 141 299 148 24 1 46 5 49 8 3 3 9 4 12 1 4 -2 27 -6 52
-9z"/>
<path d="M5659 5475 c-97 -33 -125 -52 -210 -135 -105 -105 -158 -232 -173
-415 -1 -11 2 -26 7 -32 6 -9 5 -13 -2 -13 -7 0 -10 -3 -7 -8 2 -4 7 -28 11
-52 14 -99 70 -179 152 -220 26 -13 53 -25 58 -26 59 -12 98 -17 143 -18 l54
-1 -4 -310 c-3 -308 -3 -310 -28 -357 -28 -52 -85 -91 -137 -94 -33 -1 -123
33 -123 47 0 4 -7 15 -16 23 -9 9 -17 24 -19 34 -2 9 -4 17 -5 17 -4 0 -12 44
-18 102 -11 88 -59 135 -131 127 -80 -9 -112 -58 -107 -161 9 -161 86 -301
206 -371 24 -15 49 -27 55 -29 5 -1 30 -8 55 -16 102 -32 245 -1 341 75 l51
40 31 -30 c36 -34 99 -68 161 -86 57 -17 182 -12 231 10 22 10 42 18 45 18 7
1 70 47 98 71 68 58 127 195 136 314 8 101 -26 155 -105 165 -78 9 -125 -42
-135 -145 -6 -70 -16 -99 -45 -140 -40 -56 -132 -81 -190 -53 -31 15 -77 67
-90 101 -20 52 -21 94 -20 483 l1 165 47 0 c131 -1 246 50 304 134 20 29 36
58 37 65 0 6 5 29 11 51 10 40 8 201 -3 243 -3 12 -8 32 -11 44 -10 47 -74
166 -119 221 -52 63 -131 120 -216 157 -80 34 -229 36 -321 5z m273 -250 c57
-32 98 -79 134 -155 23 -47 27 -69 28 -147 1 -96 -4 -109 -45 -119 -46 -12
-433 -11 -474 1 -34 9 -41 16 -50 49 -15 52 -2 155 29 221 32 70 86 128 149
160 68 34 158 31 229 -10z"/>
<path d="M3884 4785 c-96 -40 -100 -171 -6 -219 15 -7 54 -17 87 -21 69 -10
78 -11 85 -14 3 -2 21 -4 40 -6 36 -4 68 -9 155 -25 28 -5 66 -12 85 -14 19
-3 46 -8 60 -11 14 -2 66 -11 115 -19 50 -8 95 -16 100 -17 6 -2 29 0 52 4 84
14 121 110 71 183 -22 33 -56 47 -138 59 -19 3 -62 10 -95 16 -65 12 -77 14
-145 24 -25 4 -62 11 -84 16 -21 6 -40 8 -43 6 -2 -3 -19 -1 -36 4 -18 5 -52
12 -77 15 -25 3 -54 8 -64 11 -11 3 -34 7 -50 9 -17 1 -42 5 -56 7 -14 3 -40
-1 -56 -8z"/>
<path d="M7688 4795 c-2 -1 -23 -5 -48 -9 -25 -3 -58 -8 -75 -11 -16 -4 -46
-8 -65 -10 -19 -2 -35 -4 -35 -5 0 -2 -519 -90 -530 -90 -14 0 -65 -67 -66
-86 -1 -13 -2 -30 -3 -36 -4 -25 27 -75 55 -92 43 -25 81 -23 314 21 17 3 39
7 50 8 11 2 92 15 180 30 88 15 178 29 200 32 22 2 58 13 80 23 79 38 87 154
13 202 -23 15 -64 28 -70 23z"/>
<path d="M4606 4323 c-4 -4 -21 -8 -89 -17 -27 -4 -59 -9 -70 -12 -12 -2 -62
-11 -112 -19 -49 -8 -101 -17 -115 -19 -14 -3 -41 -7 -60 -10 -19 -3 -48 -8
-65 -11 -82 -14 -101 -17 -138 -21 -104 -13 -164 -74 -146 -152 13 -59 69 -99
129 -94 30 3 105 15 201 32 64 11 130 22 145 24 16 2 56 8 89 15 33 6 78 13
100 16 22 2 54 8 70 11 17 3 39 7 50 9 74 10 97 20 125 51 26 30 37 66 30 99
-1 6 -2 14 -3 20 -3 18 -53 66 -73 70 -10 2 -19 4 -19 5 0 4 -45 6 -49 3z"/>
<path d="M6935 4311 c-36 -17 -52 -36 -64 -77 -25 -87 28 -142 154 -159 33 -5
148 -25 175 -30 14 -3 45 -8 70 -11 25 -3 54 -8 65 -10 11 -3 36 -7 55 -10 19
-3 46 -7 60 -10 14 -2 43 -7 65 -10 22 -3 46 -7 54 -10 11 -4 93 -14 121 -16
32 -2 55 7 82 31 27 24 32 36 34 77 3 75 -33 117 -111 130 -21 3 -47 8 -59 10
-22 5 -46 9 -106 18 -19 3 -46 8 -60 10 -14 3 -43 7 -65 11 -22 3 -47 7 -55
10 -8 2 -35 6 -60 9 -25 3 -56 8 -70 11 -63 12 -77 15 -110 21 -19 3 -48 7
-65 9 -16 3 -41 6 -55 8 -14 2 -38 -4 -55 -12z"/>
</g>
</svg>
